<svg>
<path d="M 50 50 L 680 50 z"/>
<path d="M 680 50 L 665 75.98076211353316 z"/>
<path d="M 650 50 L 635 75.98076211353316 z"/>
<path d="M 620 50 L 605 75.98076211353316 z"/>
<path d="M 590 50 L 575 75.98076211353316 z"/>
<path d="M 560 50 L 545 75.98076211353316 z"/>
<path d="M 530 50 L 515 75.98076211353316 z"/>
<path d="M 500 50 L 485 75.98076211353316 z"/>
<path d="M 470 50 L 455 75.98076211353316 z"/>
<path d="M 440 50 L 425 75.98076211353316 z"/>
<path d="M 410 50 L 395 75.98076211353316 z"/>
<path d="M 380 50 L 365 75.98076211353316 z"/>
<path d="M 350 50 L 335 75.98076211353316 z"/>
<path d="M 320 50 L 305 75.98076211353316 z"/>
<path d="M 290 50 L 275 75.98076211353316 z"/>
<path d="M 260 50 L 245 75.98076211353316 z"/>
<path d="M 230 50 L 215 75.98076211353316 z"/>
<path d="M 200 50 L 185 75.98076211353316 z"/>
<path d="M 170 50 L 155 75.98076211353316 z"/>
<path d="M 140 50 L 125 75.98076211353316 z"/>
<path d="M 110 50 L 95 75.98076211353316 z"/>
<path d="M 80 50 L 65 75.98076211353316 z"/>
<path d="M 50 50 L 50 80 z"/>
<path d="M 80 50 L 80 80 z"/>
<path d="M 110 50 L 110 80 z"/>
<path d="M 140 50 L 140 80 z"/>
<path d="M 170 50 L 170 80 z"/>
<path d="M 200 50 L 200 80 z"/>
<path d="M 230 50 L 230 80 z"/>
<path d="M 260 50 L 260 80 z"/>
<path d="M 290 50 L 290 80 z"/>
<path d="M 320 50 L 320 80 z"/>
<path d="M 350 50 L 350 80 z"/>
<path d="M 380 50 L 380 80 z"/>
<path d="M 410 50 L 410 80 z"/>
<path d="M 440 50 L 440 80 z"/>
<path d="M 470 50 L 470 80 z"/>
<path d="M 500 50 L 500 80 z"/>
<path d="M 530 50 L 530 80 z"/>
<path d="M 560 50 L 560 80 z"/>
<path d="M 590 50 L 590 80 z"/>
<path d="M 620 50 L 620 80 z"/>
<path d="M 650 50 L 650 80 z"/>
<path d="M 665 75.98076211353316 L 665 135.98076211353316 z"/>
<path d="M 635 75.98076211353316 L 635 135.98076211353316 z"/>
<path d="M 605 75.98076211353316 L 605 135.98076211353316 z"/>
<path d="M 575 75.98076211353316 L 575 135.98076211353316 z"/>
<path d="M 545 75.98076211353316 L 545 135.98076211353316 z"/>
<path d="M 515 75.98076211353316 L 515 135.98076211353316 z"/>
<path d="M 485 75.98076211353316 L 485 135.98076211353316 z"/>
<path d="M 455 75.98076211353316 L 455 135.98076211353316 z"/>
<path d="M 425 75.98076211353316 L 425 135.98076211353316 z"/>
<path d="M 395 75.98076211353316 L 395 135.98076211353316 z"/>
<path d="M 365 75.98076211353316 L 365 135.98076211353316 z"/>
<path d="M 335 75.98076211353316 L 335 135.98076211353316 z"/>
<path d="M 305 75.98076211353316 L 305 135.98076211353316 z"/>
<path d="M 275 75.98076211353316 L 275 135.98076211353316 z"/>
<path d="M 245 75.98076211353316 L 245 135.98076211353316 z"/>
<path d="M 215 75.98076211353316 L 215 135.98076211353316 z"/>
<path d="M 185 75.98076211353316 L 185 135.98076211353316 z"/>
<path d="M 155 75.98076211353316 L 155 135.98076211353316 z"/>
<path d="M 125 75.98076211353316 L 125 135.98076211353316 z"/>
<path d="M 95 75.98076211353316 L 95 135.98076211353316 z"/>
<path d="M 65 75.98076211353316 L 65 135.98076211353316 z"/>
<path d="M 65 105.98076211353316 L 665 105.98076211353316 z"/>
<path d="M 650 80 L 680 131.96152422706632 z"/>
<path d="M 620 80 L 650 131.96152422706632 z"/>
<path d="M 590 80 L 620 131.96152422706632 z"/>
<path d="M 560 80 L 590 131.96152422706632 z"/>
<path d="M 530 80 L 560 131.96152422706632 z"/>
<path d="M 500 80 L 530 131.96152422706632 z"/>
<path d="M 470 80 L 500 131.96152422706632 z"/>
<path d="M 440 80 L 470 131.96152422706632 z"/>
<path d="M 410 80 L 440 131.96152422706632 z"/>
<path d="M 380 80 L 410 131.96152422706632 z"/>
<path d="M 350 80 L 380 131.96152422706632 z"/>
<path d="M 320 80 L 350 131.96152422706632 z"/>
<path d="M 290 80 L 320 131.96152422706632 z"/>
<path d="M 260 80 L 290 131.96152422706632 z"/>
<path d="M 230 80 L 260 131.96152422706632 z"/>
<path d="M 200 80 L 230 131.96152422706632 z"/>
<path d="M 170 80 L 200 131.96152422706632 z"/>
<path d="M 140 80 L 170 131.96152422706632 z"/>
<path d="M 110 80 L 140 131.96152422706632 z"/>
<path d="M 80 80 L 110 131.96152422706632 z"/>
<path d="M 50 80 L 80 131.96152422706632 z"/>
<path d="M 50 161.96152422706632 L 50 191.96152422706632 z"/>
<path d="M 80 131.96152422706632 L 80 191.96152422706632 z"/>
<path d="M 110 131.96152422706632 L 110 191.96152422706632 z"/>
<path d="M 140 131.96152422706632 L 140 191.96152422706632 z"/>
<path d="M 170 131.96152422706632 L 170 191.96152422706632 z"/>
<path d="M 200 131.96152422706632 L 200 191.96152422706632 z"/>
<path d="M 230 131.96152422706632 L 230 191.96152422706632 z"/>
<path d="M 260 131.96152422706632 L 260 191.96152422706632 z"/>
<path d="M 290 131.96152422706632 L 290 191.96152422706632 z"/>
<path d="M 320 131.96152422706632 L 320 191.96152422706632 z"/>
<path d="M 350 131.96152422706632 L 350 191.96152422706632 z"/>
<path d="M 380 131.96152422706632 L 380 191.96152422706632 z"/>
<path d="M 410 131.96152422706632 L 410 191.96152422706632 z"/>
<path d="M 440 131.96152422706632 L 440 191.96152422706632 z"/>
<path d="M 470 131.96152422706632 L 470 191.96152422706632 z"/>
<path d="M 500 131.96152422706632 L 500 191.96152422706632 z"/>
<path d="M 530 131.96152422706632 L 530 191.96152422706632 z"/>
<path d="M 560 131.96152422706632 L 560 191.96152422706632 z"/>
<path d="M 590 131.96152422706632 L 590 191.96152422706632 z"/>
<path d="M 620 131.96152422706632 L 620 191.96152422706632 z"/>
<path d="M 650 131.96152422706632 L 650 191.96152422706632 z"/>
<path d="M 680 131.96152422706632 L 680 161.96152422706632 z"/>
<path d="M 65 135.98076211353316 L 50 161.96152422706632 z"/>
<path d="M 95 135.98076211353316 L 65 187.94228634059948 z"/>
<path d="M 125 135.98076211353316 L 95 187.94228634059948 z"/>
<path d="M 155 135.98076211353316 L 125 187.94228634059948 z"/>
<path d="M 185 135.98076211353316 L 155 187.94228634059948 z"/>
<path d="M 215 135.98076211353316 L 185 187.94228634059948 z"/>
<path d="M 245 135.98076211353316 L 215 187.94228634059948 z"/>
<path d="M 275 135.98076211353316 L 245 187.94228634059948 z"/>
<path d="M 305 135.98076211353316 L 275 187.94228634059948 z"/>
<path d="M 335 135.98076211353316 L 305 187.94228634059948 z"/>
<path d="M 365 135.98076211353316 L 335 187.94228634059948 z"/>
<path d="M 395 135.98076211353316 L 365 187.94228634059948 z"/>
<path d="M 425 135.98076211353316 L 395 187.94228634059948 z"/>
<path d="M 455 135.98076211353316 L 425 187.94228634059948 z"/>
<path d="M 485 135.98076211353316 L 455 187.94228634059948 z"/>
<path d="M 515 135.98076211353316 L 485 187.94228634059948 z"/>
<path d="M 545 135.98076211353316 L 515 187.94228634059948 z"/>
<path d="M 575 135.98076211353316 L 545 187.94228634059948 z"/>
<path d="M 605 135.98076211353316 L 575 187.94228634059948 z"/>
<path d="M 635 135.98076211353316 L 605 187.94228634059948 z"/>
<path d="M 665 135.98076211353316 L 635 187.94228634059948 z"/>
<path d="M 680 161.96152422706632 L 665 187.94228634059948 z"/>
<path d="M 50 161.96152422706632 L 680 161.96152422706632 z"/>
<path d="M 665 187.94228634059948 L 665 247.94228634059948 z"/>
<path d="M 635 187.94228634059948 L 635 247.94228634059948 z"/>
<path d="M 605 187.94228634059948 L 605 247.94228634059948 z"/>
<path d="M 575 187.94228634059948 L 575 247.94228634059948 z"/>
<path d="M 545 187.94228634059948 L 545 247.94228634059948 z"/>
<path d="M 515 187.94228634059948 L 515 247.94228634059948 z"/>
<path d="M 485 187.94228634059948 L 485 247.94228634059948 z"/>
<path d="M 455 187.94228634059948 L 455 247.94228634059948 z"/>
<path d="M 425 187.94228634059948 L 425 247.94228634059948 z"/>
<path d="M 395 187.94228634059948 L 395 247.94228634059948 z"/>
<path d="M 365 187.94228634059948 L 365 247.94228634059948 z"/>
<path d="M 335 187.94228634059948 L 335 247.94228634059948 z"/>
<path d="M 305 187.94228634059948 L 305 247.94228634059948 z"/>
<path d="M 275 187.94228634059948 L 275 247.94228634059948 z"/>
<path d="M 245 187.94228634059948 L 245 247.94228634059948 z"/>
<path d="M 215 187.94228634059948 L 215 247.94228634059948 z"/>
<path d="M 185 187.94228634059948 L 185 247.94228634059948 z"/>
<path d="M 155 187.94228634059948 L 155 247.94228634059948 z"/>
<path d="M 125 187.94228634059948 L 125 247.94228634059948 z"/>
<path d="M 95 187.94228634059948 L 95 247.94228634059948 z"/>
<path d="M 65 187.94228634059948 L 65 247.94228634059948 z"/>
<path d="M 65 217.94228634059948 L 665 217.94228634059948 z"/>
<path d="M 650 191.96152422706632 L 680 243.92304845413264 z"/>
<path d="M 620 191.96152422706632 L 650 243.92304845413264 z"/>
<path d="M 590 191.96152422706632 L 620 243.92304845413264 z"/>
<path d="M 560 191.96152422706632 L 590 243.92304845413264 z"/>
<path d="M 530 191.96152422706632 L 560 243.92304845413264 z"/>
<path d="M 500 191.96152422706632 L 530 243.92304845413264 z"/>
<path d="M 470 191.96152422706632 L 500 243.92304845413264 z"/>
<path d="M 440 191.96152422706632 L 470 243.92304845413264 z"/>
<path d="M 410 191.96152422706632 L 440 243.92304845413264 z"/>
<path d="M 380 191.96152422706632 L 410 243.92304845413264 z"/>
<path d="M 350 191.96152422706632 L 380 243.92304845413264 z"/>
<path d="M 320 191.96152422706632 L 350 243.92304845413264 z"/>
<path d="M 290 191.96152422706632 L 320 243.92304845413264 z"/>
<path d="M 260 191.96152422706632 L 290 243.92304845413264 z"/>
<path d="M 230 191.96152422706632 L 260 243.92304845413264 z"/>
<path d="M 200 191.96152422706632 L 230 243.92304845413264 z"/>
<path d="M 170 191.96152422706632 L 200 243.92304845413264 z"/>
<path d="M 140 191.96152422706632 L 170 243.92304845413264 z"/>
<path d="M 110 191.96152422706632 L 140 243.92304845413264 z"/>
<path d="M 80 191.96152422706632 L 110 243.92304845413264 z"/>
<path d="M 50 191.96152422706632 L 80 243.92304845413264 z"/>
<path d="M 50 273.92304845413264 L 50 303.92304845413264 z"/>
<path d="M 80 243.92304845413264 L 80 303.92304845413264 z"/>
<path d="M 110 243.92304845413264 L 110 303.92304845413264 z"/>
<path d="M 140 243.92304845413264 L 140 303.92304845413264 z"/>
<path d="M 170 243.92304845413264 L 170 303.92304845413264 z"/>
<path d="M 200 243.92304845413264 L 200 303.92304845413264 z"/>
<path d="M 230 243.92304845413264 L 230 303.92304845413264 z"/>
<path d="M 260 243.92304845413264 L 260 303.92304845413264 z"/>
<path d="M 290 243.92304845413264 L 290 303.92304845413264 z"/>
<path d="M 320 243.92304845413264 L 320 303.92304845413264 z"/>
<path d="M 350 243.92304845413264 L 350 303.92304845413264 z"/>
<path d="M 380 243.92304845413264 L 380 303.92304845413264 z"/>
<path d="M 410 243.92304845413264 L 410 303.92304845413264 z"/>
<path d="M 440 243.92304845413264 L 440 303.92304845413264 z"/>
<path d="M 470 243.92304845413264 L 470 303.92304845413264 z"/>
<path d="M 500 243.92304845413264 L 500 303.92304845413264 z"/>
<path d="M 530 243.92304845413264 L 530 303.92304845413264 z"/>
<path d="M 560 243.92304845413264 L 560 303.92304845413264 z"/>
<path d="M 590 243.92304845413264 L 590 303.92304845413264 z"/>
<path d="M 620 243.92304845413264 L 620 303.92304845413264 z"/>
<path d="M 650 243.92304845413264 L 650 303.92304845413264 z"/>
<path d="M 680 243.92304845413264 L 680 273.92304845413264 z"/>
<path d="M 65 247.94228634059948 L 50 273.92304845413264 z"/>
<path d="M 95 247.94228634059948 L 65 299.9038105676658 z"/>
<path d="M 125 247.94228634059948 L 95 299.9038105676658 z"/>
<path d="M 155 247.94228634059948 L 125 299.9038105676658 z"/>
<path d="M 185 247.94228634059948 L 155 299.9038105676658 z"/>
<path d="M 215 247.94228634059948 L 185 299.9038105676658 z"/>
<path d="M 245 247.94228634059948 L 215 299.9038105676658 z"/>
<path d="M 275 247.94228634059948 L 245 299.9038105676658 z"/>
<path d="M 305 247.94228634059948 L 275 299.9038105676658 z"/>
<path d="M 335 247.94228634059948 L 305 299.9038105676658 z"/>
<path d="M 365 247.94228634059948 L 335 299.9038105676658 z"/>
<path d="M 395 247.94228634059948 L 365 299.9038105676658 z"/>
<path d="M 425 247.94228634059948 L 395 299.9038105676658 z"/>
<path d="M 455 247.94228634059948 L 425 299.9038105676658 z"/>
<path d="M 485 247.94228634059948 L 455 299.9038105676658 z"/>
<path d="M 515 247.94228634059948 L 485 299.9038105676658 z"/>
<path d="M 545 247.94228634059948 L 515 299.9038105676658 z"/>
<path d="M 575 247.94228634059948 L 545 299.9038105676658 z"/>
<path d="M 605 247.94228634059948 L 575 299.9038105676658 z"/>
<path d="M 635 247.94228634059948 L 605 299.9038105676658 z"/>
<path d="M 665 247.94228634059948 L 635 299.9038105676658 z"/>
<path d="M 680 273.92304845413264 L 665 299.9038105676658 z"/>
<path d="M 50 273.92304845413264 L 680 273.92304845413264 z"/>
<path d="M 665 299.9038105676658 L 665 359.9038105676658 z"/>
<path d="M 635 299.9038105676658 L 635 359.9038105676658 z"/>
<path d="M 605 299.9038105676658 L 605 359.9038105676658 z"/>
<path d="M 575 299.9038105676658 L 575 359.9038105676658 z"/>
<path d="M 545 299.9038105676658 L 545 359.9038105676658 z"/>
<path d="M 515 299.9038105676658 L 515 359.9038105676658 z"/>
<path d="M 485 299.9038105676658 L 485 359.9038105676658 z"/>
<path d="M 455 299.9038105676658 L 455 359.9038105676658 z"/>
<path d="M 425 299.9038105676658 L 425 359.9038105676658 z"/>
<path d="M 395 299.9038105676658 L 395 359.9038105676658 z"/>
<path d="M 365 299.9038105676658 L 365 359.9038105676658 z"/>
<path d="M 335 299.9038105676658 L 335 359.9038105676658 z"/>
<path d="M 305 299.9038105676658 L 305 359.9038105676658 z"/>
<path d="M 275 299.9038105676658 L 275 359.9038105676658 z"/>
<path d="M 245 299.9038105676658 L 245 359.9038105676658 z"/>
<path d="M 215 299.9038105676658 L 215 359.9038105676658 z"/>
<path d="M 185 299.9038105676658 L 185 359.9038105676658 z"/>
<path d="M 155 299.9038105676658 L 155 359.9038105676658 z"/>
<path d="M 125 299.9038105676658 L 125 359.9038105676658 z"/>
<path d="M 95 299.9038105676658 L 95 359.9038105676658 z"/>
<path d="M 65 299.9038105676658 L 65 359.9038105676658 z"/>
<path d="M 65 329.9038105676658 L 665 329.9038105676658 z"/>
<path d="M 650 303.92304845413264 L 680 355.88457268119896 z"/>
<path d="M 620 303.92304845413264 L 650 355.88457268119896 z"/>
<path d="M 590 303.92304845413264 L 620 355.88457268119896 z"/>
<path d="M 560 303.92304845413264 L 590 355.88457268119896 z"/>
<path d="M 530 303.92304845413264 L 560 355.88457268119896 z"/>
<path d="M 500 303.92304845413264 L 530 355.88457268119896 z"/>
<path d="M 470 303.92304845413264 L 500 355.88457268119896 z"/>
<path d="M 440 303.92304845413264 L 470 355.88457268119896 z"/>
<path d="M 410 303.92304845413264 L 440 355.88457268119896 z"/>
<path d="M 380 303.92304845413264 L 410 355.88457268119896 z"/>
<path d="M 350 303.92304845413264 L 380 355.88457268119896 z"/>
<path d="M 320 303.92304845413264 L 350 355.88457268119896 z"/>
<path d="M 290 303.92304845413264 L 320 355.88457268119896 z"/>
<path d="M 260 303.92304845413264 L 290 355.88457268119896 z"/>
<path d="M 230 303.92304845413264 L 260 355.88457268119896 z"/>
<path d="M 200 303.92304845413264 L 230 355.88457268119896 z"/>
<path d="M 170 303.92304845413264 L 200 355.88457268119896 z"/>
<path d="M 140 303.92304845413264 L 170 355.88457268119896 z"/>
<path d="M 110 303.92304845413264 L 140 355.88457268119896 z"/>
<path d="M 80 303.92304845413264 L 110 355.88457268119896 z"/>
<path d="M 50 303.92304845413264 L 80 355.88457268119896 z"/>
<path d="M 50 385.88457268119896 L 50 415.88457268119896 z"/>
<path d="M 80 355.88457268119896 L 80 415.88457268119896 z"/>
<path d="M 110 355.88457268119896 L 110 415.88457268119896 z"/>
<path d="M 140 355.88457268119896 L 140 415.88457268119896 z"/>
<path d="M 170 355.88457268119896 L 170 415.88457268119896 z"/>
<path d="M 200 355.88457268119896 L 200 415.88457268119896 z"/>
<path d="M 230 355.88457268119896 L 230 415.88457268119896 z"/>
<path d="M 260 355.88457268119896 L 260 415.88457268119896 z"/>
<path d="M 290 355.88457268119896 L 290 415.88457268119896 z"/>
<path d="M 320 355.88457268119896 L 320 415.88457268119896 z"/>
<path d="M 350 355.88457268119896 L 350 415.88457268119896 z"/>
<path d="M 380 355.88457268119896 L 380 415.88457268119896 z"/>
<path d="M 410 355.88457268119896 L 410 415.88457268119896 z"/>
<path d="M 440 355.88457268119896 L 440 415.88457268119896 z"/>
<path d="M 470 355.88457268119896 L 470 415.88457268119896 z"/>
<path d="M 500 355.88457268119896 L 500 415.88457268119896 z"/>
<path d="M 530 355.88457268119896 L 530 415.88457268119896 z"/>
<path d="M 560 355.88457268119896 L 560 415.88457268119896 z"/>
<path d="M 590 355.88457268119896 L 590 415.88457268119896 z"/>
<path d="M 620 355.88457268119896 L 620 415.88457268119896 z"/>
<path d="M 650 355.88457268119896 L 650 415.88457268119896 z"/>
<path d="M 680 355.88457268119896 L 680 385.88457268119896 z"/>
<path d="M 65 359.9038105676658 L 50 385.88457268119896 z"/>
<path d="M 95 359.9038105676658 L 65 411.8653347947321 z"/>
<path d="M 125 359.9038105676658 L 95 411.8653347947321 z"/>
<path d="M 155 359.9038105676658 L 125 411.8653347947321 z"/>
<path d="M 185 359.9038105676658 L 155 411.8653347947321 z"/>
<path d="M 215 359.9038105676658 L 185 411.8653347947321 z"/>
<path d="M 245 359.9038105676658 L 215 411.8653347947321 z"/>
<path d="M 275 359.9038105676658 L 245 411.8653347947321 z"/>
<path d="M 305 359.9038105676658 L 275 411.8653347947321 z"/>
<path d="M 335 359.9038105676658 L 305 411.8653347947321 z"/>
<path d="M 365 359.9038105676658 L 335 411.8653347947321 z"/>
<path d="M 395 359.9038105676658 L 365 411.8653347947321 z"/>
<path d="M 425 359.9038105676658 L 395 411.8653347947321 z"/>
<path d="M 455 359.9038105676658 L 425 411.8653347947321 z"/>
<path d="M 485 359.9038105676658 L 455 411.8653347947321 z"/>
<path d="M 515 359.9038105676658 L 485 411.8653347947321 z"/>
<path d="M 545 359.9038105676658 L 515 411.8653347947321 z"/>
<path d="M 575 359.9038105676658 L 545 411.8653347947321 z"/>
<path d="M 605 359.9038105676658 L 575 411.8653347947321 z"/>
<path d="M 635 359.9038105676658 L 605 411.8653347947321 z"/>
<path d="M 665 359.9038105676658 L 635 411.8653347947321 z"/>
<path d="M 680 385.88457268119896 L 665 411.8653347947321 z"/>
<path d="M 50 385.88457268119896 L 680 385.88457268119896 z"/>
<path d="M 665 411.8653347947321 L 665 471.8653347947321 z"/>
<path d="M 635 411.8653347947321 L 635 471.8653347947321 z"/>
<path d="M 605 411.8653347947321 L 605 471.8653347947321 z"/>
<path d="M 575 411.8653347947321 L 575 471.8653347947321 z"/>
<path d="M 545 411.8653347947321 L 545 471.8653347947321 z"/>
<path d="M 515 411.8653347947321 L 515 471.8653347947321 z"/>
<path d="M 485 411.8653347947321 L 485 471.8653347947321 z"/>
<path d="M 455 411.8653347947321 L 455 471.8653347947321 z"/>
<path d="M 425 411.8653347947321 L 425 471.8653347947321 z"/>
<path d="M 395 411.8653347947321 L 395 471.8653347947321 z"/>
<path d="M 365 411.8653347947321 L 365 471.8653347947321 z"/>
<path d="M 335 411.8653347947321 L 335 471.8653347947321 z"/>
<path d="M 305 411.8653347947321 L 305 471.8653347947321 z"/>
<path d="M 275 411.8653347947321 L 275 471.8653347947321 z"/>
<path d="M 245 411.8653347947321 L 245 471.8653347947321 z"/>
<path d="M 215 411.8653347947321 L 215 471.8653347947321 z"/>
<path d="M 185 411.8653347947321 L 185 471.8653347947321 z"/>
<path d="M 155 411.8653347947321 L 155 471.8653347947321 z"/>
<path d="M 125 411.8653347947321 L 125 471.8653347947321 z"/>
<path d="M 95 411.8653347947321 L 95 471.8653347947321 z"/>
<path d="M 65 411.8653347947321 L 65 471.8653347947321 z"/>
<path d="M 65 441.8653347947321 L 665 441.8653347947321 z"/>
<path d="M 650 415.88457268119896 L 680 467.8460969082653 z"/>
<path d="M 620 415.88457268119896 L 650 467.8460969082653 z"/>
<path d="M 590 415.88457268119896 L 620 467.8460969082653 z"/>
<path d="M 560 415.88457268119896 L 590 467.8460969082653 z"/>
<path d="M 530 415.88457268119896 L 560 467.8460969082653 z"/>
<path d="M 500 415.88457268119896 L 530 467.8460969082653 z"/>
<path d="M 470 415.88457268119896 L 500 467.8460969082653 z"/>
<path d="M 440 415.88457268119896 L 470 467.8460969082653 z"/>
<path d="M 410 415.88457268119896 L 440 467.8460969082653 z"/>
<path d="M 380 415.88457268119896 L 410 467.8460969082653 z"/>
<path d="M 350 415.88457268119896 L 380 467.8460969082653 z"/>
<path d="M 320 415.88457268119896 L 350 467.8460969082653 z"/>
<path d="M 290 415.88457268119896 L 320 467.8460969082653 z"/>
<path d="M 260 415.88457268119896 L 290 467.8460969082653 z"/>
<path d="M 230 415.88457268119896 L 260 467.8460969082653 z"/>
<path d="M 200 415.88457268119896 L 230 467.8460969082653 z"/>
<path d="M 170 415.88457268119896 L 200 467.8460969082653 z"/>
<path d="M 140 415.88457268119896 L 170 467.8460969082653 z"/>
<path d="M 110 415.88457268119896 L 140 467.8460969082653 z"/>
<path d="M 80 415.88457268119896 L 110 467.8460969082653 z"/>
<path d="M 50 415.88457268119896 L 80 467.8460969082653 z"/>
<path d="M 50 497.8460969082653 L 50 527.8460969082653 z"/>
<path d="M 80 467.8460969082653 L 80 527.8460969082653 z"/>
<path d="M 110 467.8460969082653 L 110 527.8460969082653 z"/>
<path d="M 140 467.8460969082653 L 140 527.8460969082653 z"/>
<path d="M 170 467.8460969082653 L 170 527.8460969082653 z"/>
<path d="M 200 467.8460969082653 L 200 527.8460969082653 z"/>
<path d="M 230 467.8460969082653 L 230 527.8460969082653 z"/>
<path d="M 260 467.8460969082653 L 260 527.8460969082653 z"/>
<path d="M 290 467.8460969082653 L 290 527.8460969082653 z"/>
<path d="M 320 467.8460969082653 L 320 527.8460969082653 z"/>
<path d="M 350 467.8460969082653 L 350 527.8460969082653 z"/>
<path d="M 380 467.8460969082653 L 380 527.8460969082653 z"/>
<path d="M 410 467.8460969082653 L 410 527.8460969082653 z"/>
<path d="M 440 467.8460969082653 L 440 527.8460969082653 z"/>
<path d="M 470 467.8460969082653 L 470 527.8460969082653 z"/>
<path d="M 500 467.8460969082653 L 500 527.8460969082653 z"/>
<path d="M 530 467.8460969082653 L 530 527.8460969082653 z"/>
<path d="M 560 467.8460969082653 L 560 527.8460969082653 z"/>
<path d="M 590 467.8460969082653 L 590 527.8460969082653 z"/>
<path d="M 620 467.8460969082653 L 620 527.8460969082653 z"/>
<path d="M 650 467.8460969082653 L 650 527.8460969082653 z"/>
<path d="M 680 467.8460969082653 L 680 497.8460969082653 z"/>
<path d="M 65 471.8653347947321 L 50 497.8460969082653 z"/>
<path d="M 95 471.8653347947321 L 65 523.8268590217984 z"/>
<path d="M 125 471.8653347947321 L 95 523.8268590217984 z"/>
<path d="M 155 471.8653347947321 L 125 523.8268590217984 z"/>
<path d="M 185 471.8653347947321 L 155 523.8268590217984 z"/>
<path d="M 215 471.8653347947321 L 185 523.8268590217984 z"/>
<path d="M 245 471.8653347947321 L 215 523.8268590217984 z"/>
<path d="M 275 471.8653347947321 L 245 523.8268590217984 z"/>
<path d="M 305 471.8653347947321 L 275 523.8268590217984 z"/>
<path d="M 335 471.8653347947321 L 305 523.8268590217984 z"/>
<path d="M 365 471.8653347947321 L 335 523.8268590217984 z"/>
<path d="M 395 471.8653347947321 L 365 523.8268590217984 z"/>
<path d="M 425 471.8653347947321 L 395 523.8268590217984 z"/>
<path d="M 455 471.8653347947321 L 425 523.8268590217984 z"/>
<path d="M 485 471.8653347947321 L 455 523.8268590217984 z"/>
<path d="M 515 471.8653347947321 L 485 523.8268590217984 z"/>
<path d="M 545 471.8653347947321 L 515 523.8268590217984 z"/>
<path d="M 575 471.8653347947321 L 545 523.8268590217984 z"/>
<path d="M 605 471.8653347947321 L 575 523.8268590217984 z"/>
<path d="M 635 471.8653347947321 L 605 523.8268590217984 z"/>
<path d="M 665 471.8653347947321 L 635 523.8268590217984 z"/>
<path d="M 680 497.8460969082653 L 665 523.8268590217984 z"/>
<path d="M 50 497.8460969082653 L 680 497.8460969082653 z"/>
<path d="M 665 523.8268590217984 L 665 583.8268590217984 z"/>
<path d="M 635 523.8268590217984 L 635 583.8268590217984 z"/>
<path d="M 605 523.8268590217984 L 605 583.8268590217984 z"/>
<path d="M 575 523.8268590217984 L 575 583.8268590217984 z"/>
<path d="M 545 523.8268590217984 L 545 583.8268590217984 z"/>
<path d="M 515 523.8268590217984 L 515 583.8268590217984 z"/>
<path d="M 485 523.8268590217984 L 485 583.8268590217984 z"/>
<path d="M 455 523.8268590217984 L 455 583.8268590217984 z"/>
<path d="M 425 523.8268590217984 L 425 583.8268590217984 z"/>
<path d="M 395 523.8268590217984 L 395 583.8268590217984 z"/>
<path d="M 365 523.8268590217984 L 365 583.8268590217984 z"/>
<path d="M 335 523.8268590217984 L 335 583.8268590217984 z"/>
<path d="M 305 523.8268590217984 L 305 583.8268590217984 z"/>
<path d="M 275 523.8268590217984 L 275 583.8268590217984 z"/>
<path d="M 245 523.8268590217984 L 245 583.8268590217984 z"/>
<path d="M 215 523.8268590217984 L 215 583.8268590217984 z"/>
<path d="M 185 523.8268590217984 L 185 583.8268590217984 z"/>
<path d="M 155 523.8268590217984 L 155 583.8268590217984 z"/>
<path d="M 125 523.8268590217984 L 125 583.8268590217984 z"/>
<path d="M 95 523.8268590217984 L 95 583.8268590217984 z"/>
<path d="M 65 523.8268590217984 L 65 583.8268590217984 z"/>
<path d="M 65 553.8268590217984 L 665 553.8268590217984 z"/>
<path d="M 650 527.8460969082653 L 680 579.8076211353316 z"/>
<path d="M 620 527.8460969082653 L 650 579.8076211353316 z"/>
<path d="M 590 527.8460969082653 L 620 579.8076211353316 z"/>
<path d="M 560 527.8460969082653 L 590 579.8076211353316 z"/>
<path d="M 530 527.8460969082653 L 560 579.8076211353316 z"/>
<path d="M 500 527.8460969082653 L 530 579.8076211353316 z"/>
<path d="M 470 527.8460969082653 L 500 579.8076211353316 z"/>
<path d="M 440 527.8460969082653 L 470 579.8076211353316 z"/>
<path d="M 410 527.8460969082653 L 440 579.8076211353316 z"/>
<path d="M 380 527.8460969082653 L 410 579.8076211353316 z"/>
<path d="M 350 527.8460969082653 L 380 579.8076211353316 z"/>
<path d="M 320 527.8460969082653 L 350 579.8076211353316 z"/>
<path d="M 290 527.8460969082653 L 320 579.8076211353316 z"/>
<path d="M 260 527.8460969082653 L 290 579.8076211353316 z"/>
<path d="M 230 527.8460969082653 L 260 579.8076211353316 z"/>
<path d="M 200 527.8460969082653 L 230 579.8076211353316 z"/>
<path d="M 170 527.8460969082653 L 200 579.8076211353316 z"/>
<path d="M 140 527.8460969082653 L 170 579.8076211353316 z"/>
<path d="M 110 527.8460969082653 L 140 579.8076211353316 z"/>
<path d="M 80 527.8460969082653 L 110 579.8076211353316 z"/>
<path d="M 50 527.8460969082653 L 80 579.8076211353316 z"/>
<path d="M 80 579.8076211353316 L 80 609.8076211353316 z"/>
<path d="M 110 579.8076211353316 L 110 609.8076211353316 z"/>
<path d="M 140 579.8076211353316 L 140 609.8076211353316 z"/>
<path d="M 170 579.8076211353316 L 170 609.8076211353316 z"/>
<path d="M 200 579.8076211353316 L 200 609.8076211353316 z"/>
<path d="M 230 579.8076211353316 L 230 609.8076211353316 z"/>
<path d="M 260 579.8076211353316 L 260 609.8076211353316 z"/>
<path d="M 290 579.8076211353316 L 290 609.8076211353316 z"/>
<path d="M 320 579.8076211353316 L 320 609.8076211353316 z"/>
<path d="M 350 579.8076211353316 L 350 609.8076211353316 z"/>
<path d="M 380 579.8076211353316 L 380 609.8076211353316 z"/>
<path d="M 410 579.8076211353316 L 410 609.8076211353316 z"/>
<path d="M 440 579.8076211353316 L 440 609.8076211353316 z"/>
<path d="M 470 579.8076211353316 L 470 609.8076211353316 z"/>
<path d="M 500 579.8076211353316 L 500 609.8076211353316 z"/>
<path d="M 530 579.8076211353316 L 530 609.8076211353316 z"/>
<path d="M 560 579.8076211353316 L 560 609.8076211353316 z"/>
<path d="M 590 579.8076211353316 L 590 609.8076211353316 z"/>
<path d="M 620 579.8076211353316 L 620 609.8076211353316 z"/>
<path d="M 650 579.8076211353316 L 650 609.8076211353316 z"/>
<path d="M 680 579.8076211353316 L 680 609.8076211353316 z"/>
<path d="M 65 583.8268590217984 L 50 609.8076211353316 z"/>
<path d="M 95 583.8268590217984 L 80 609.8076211353316 z"/>
<path d="M 125 583.8268590217984 L 110 609.8076211353316 z"/>
<path d="M 155 583.8268590217984 L 140 609.8076211353316 z"/>
<path d="M 185 583.8268590217984 L 170 609.8076211353316 z"/>
<path d="M 215 583.8268590217984 L 200 609.8076211353316 z"/>
<path d="M 245 583.8268590217984 L 230 609.8076211353316 z"/>
<path d="M 275 583.8268590217984 L 260 609.8076211353316 z"/>
<path d="M 305 583.8268590217984 L 290 609.8076211353316 z"/>
<path d="M 335 583.8268590217984 L 320 609.8076211353316 z"/>
<path d="M 365 583.8268590217984 L 350 609.8076211353316 z"/>
<path d="M 395 583.8268590217984 L 380 609.8076211353316 z"/>
<path d="M 425 583.8268590217984 L 410 609.8076211353316 z"/>
<path d="M 455 583.8268590217984 L 440 609.8076211353316 z"/>
<path d="M 485 583.8268590217984 L 470 609.8076211353316 z"/>
<path d="M 515 583.8268590217984 L 500 609.8076211353316 z"/>
<path d="M 545 583.8268590217984 L 530 609.8076211353316 z"/>
<path d="M 575 583.8268590217984 L 560 609.8076211353316 z"/>
<path d="M 605 583.8268590217984 L 590 609.8076211353316 z"/>
<path d="M 635 583.8268590217984 L 620 609.8076211353316 z"/>
<path d="M 665 583.8268590217984 L 650 609.8076211353316 z"/>
</svg>
